PathFileType	4	(X/Y/Z)	C:\Data\4407\4407cd02.trc
DataRate	CameraRate	NumFrames	NumMarkers	Units	OrigDataRate	OrigDataStartFrame	OrigNumFrames
200.00	200.00	      13	29	mm	200.00	1001	      2000
Frame#	Time	Offset			RShoulder			RUpperArm			RElbow			RForearm			RWrist			LShoulder			LUpperArm			LElbow			LForearm			LWrist			LPSIS			RPSIS			RASIS			RThigh			RKnee			RShank			RAnkle			RHeel			RLat5			RToe			LASIS			LThigh			LKnee			LShank			LAnkle			LHeel			LLat5			LToe			
		X1	Y1	Z1	X2	Y2	Z2	X3	Y3	Z3	X4	Y4	Z4	X5	Y5	Z5	X6	Y6	Z6	X7	Y7	Z7	X8	Y8	Z8	X9	Y9	Z9	X10	Y10	Z10	X11	Y11	Z11	X12	Y12	Z12	X13	Y13	Z13	X14	Y14	Z14	X15	Y15	Z15	X16	Y16	Z16	X17	Y17	Z17	X18	Y18	Z18	X19	Y19	Z19	X20	Y20	Z20	X21	Y21	Z21	X22	Y22	Z22	X23	Y23	Z23	X24	Y24	Z24	X25	Y25	Z25	X26	Y26	Z26	X27	Y27	Z27	X28	Y28	Z28	X29	Y29	Z29	

1001	5.000	335.54071	-258.62784	1393.43420	450.18253	-124.57507	1499.37964	529.33807	-202.40526	1325.00586	620.83698	-152.51936	1203.38135	667.26251	-120.68909	1049.45483	743.82654	-10.44728	1014.54639	97.88551	-134.84160	1506.63733	42.14860	-221.92012	1295.18628	-43.26564	-192.24940	1206.85791	-93.93050	-147.38322	1062.81311	-174.87262	-28.13651	1008.52942	247.44759	-285.65585	1020.75970	297.90994	-281.64276	1015.56250	379.72641	-65.88923	1015.68079	341.90393	61.35839	747.62982	422.51086	65.19851	543.89459	379.88718	82.26150	461.57285	388.93137	-100.24927	156.39433	341.97653	-165.66562	142.86015	431.27853	17.38060	71.99789	325.33954	28.53585	63.06105	129.83112	-80.03144	999.88818	176.99097	-88.19035	665.37439	143.52567	-179.00188	514.09155	192.89697	-159.35649	441.42926	200.58603	-275.69379	113.55173	248.84534	-336.48526	88.57874	174.40207	-124.82048	55.98745	285.66653	-127.08090	46.05037	
1002	5.005	335.63165	-258.73227	1393.01831	450.18735	-124.71227	1498.98486	528.93500	-202.96381	1324.24902	620.78705	-153.26341	1202.86963	667.16644	-120.92464	1048.93884	743.79132	-10.56725	1014.37006	97.99010	-134.96922	1506.26758	42.42989	-222.33479	1294.73438	-43.00376	-192.73714	1206.42065	-93.82596	-147.49239	1062.50183	-174.74507	-28.21630	1008.43695	247.99496	-286.13663	1020.28546	298.24658	-281.97620	1015.13312	379.61990	-65.90049	1015.03699	341.27365	61.35351	747.93323	421.73813	66.78668	544.31891	379.32465	85.31158	462.63385	389.21021	-87.53671	152.29791	342.86743	-153.18085	136.53096	431.11804	32.78085	71.51505	325.12619	43.77171	62.84008	129.67168	-80.95079	999.43073	177.03740	-91.18247	664.65161	143.55775	-183.12265	514.08960	192.97855	-164.00504	441.07767	200.95215	-281.87479	113.96276	248.48547	-342.97064	88.76367	174.59712	-131.24843	55.89981	285.69476	-134.03760	45.70602	
1003	5.010	335.67706	-258.95206	1392.60083	450.18613	-124.87224	1498.53210	528.48633	-203.36729	1323.59167	620.71326	-153.95850	1202.37659	667.18512	-121.17936	1048.64551	743.75586	-10.71122	1014.21436	98.04998	-135.12631	1505.90576	42.70543	-222.67542	1294.31958	-42.88177	-193.14633	1205.97485	-93.75133	-147.84084	1062.24646	-174.62312	-28.43894	1008.34991	248.42633	-286.66013	1020.02899	298.89755	-282.42133	1014.87628	379.47202	-65.92311	1014.59912	340.38541	61.21865	748.20721	420.91702	68.02668	544.67145	378.70227	88.49264	463.38687	389.42929	-74.12318	148.21407	343.14987	-140.01720	130.39806	431.02176	48.13253	71.06207	324.88406	58.93223	62.81585	129.46710	-81.99557	998.75513	177.08875	-93.81005	664.00153	143.73808	-187.11124	513.87640	193.03247	-168.47900	440.88794	201.24757	-288.08002	114.37991	247.79611	-348.47189	89.56187	174.50980	-137.74567	55.93682	285.69388	-140.26434	45.66189	
1004	5.015	335.75070	-259.00110	1391.97839	450.17209	-125.03445	1498.07214	527.51904	-203.59149	1322.73376	620.69916	-154.53951	1201.89380	667.10034	-121.44306	1048.21533	743.70813	-10.88963	1014.15259	98.17163	-135.24461	1505.45227	42.97000	-222.95941	1293.72485	-42.60209	-193.60649	1205.56750	-96.15653	-149.76617	1060.59460	-174.56007	-28.54200	1008.33350	248.85187	-287.18207	1019.68640	299.29446	-282.60083	1014.35919	379.34799	-66.10486	1013.77179	339.65002	61.01055	748.07788	420.32071	68.71527	544.82928	378.02847	91.24343	464.35544	389.76028	-61.15020	144.42249	343.54984	-126.84731	123.76867	430.78625	63.50562	71.22908	324.81989	74.31133	63.29335	129.41415	-82.77358	998.22913	177.31961	-96.34464	663.47876	143.88734	-191.19142	513.74719	193.32542	-172.79018	440.74564	201.44450	-294.07263	114.63055	248.77097	-354.61630	90.24686	174.83186	-144.26245	55.72211	285.58359	-146.49359	45.56619	
1005	5.020	335.85931	-259.15131	1391.44495	450.10043	-125.38777	1497.66443	526.95496	-204.09418	1322.31824	620.68695	-155.14331	1201.35229	667.04791	-121.62203	1047.65271	743.73297	-11.00330	1014.00043	98.24262	-135.28470	1504.98694	43.29924	-223.33908	1293.24658	-42.33230	-194.05634	1205.14453	-94.80239	-149.08357	1060.08948	-174.50266	-28.60791	1008.22119	249.62192	-287.42065	1019.03931	299.60782	-283.00635	1013.98102	379.20679	-65.88429	1013.10205	339.17001	61.36844	748.02026	419.56302	69.74853	545.05719	377.16016	93.30752	464.95233	389.98724	-48.37285	140.50050	343.80722	-113.55299	117.88544	430.73740	78.65329	71.59533	324.56134	89.47829	63.92386	129.35831	-83.53592	997.48450	177.24461	-99.69646	662.53595	144.11288	-195.04231	513.53754	193.45480	-177.30388	440.45078	201.75754	-300.43500	115.26954	249.43872	-361.63965	90.59156	174.66220	-150.77721	55.65813	285.55399	-152.90569	45.45454	
1006	5.025	335.94754	-259.16547	1390.85510	450.10559	-125.62692	1497.13660	526.52246	-204.44225	1321.58044	620.68610	-155.79228	1200.83972	667.02606	-121.85888	1047.37073	743.60254	-11.08631	1013.86469	98.41034	-135.35646	1504.55371	43.45829	-223.84102	1292.80066	-42.11842	-194.56094	1204.49109	-94.57811	-149.08502	1059.77173	-174.52216	-28.65323	1008.20081	250.09439	-287.88559	1018.69952	299.95361	-283.13705	1013.54858	379.05786	-65.93297	1012.34711	338.75900	61.25136	747.81396	418.72852	70.22742	545.01483	376.69272	95.84785	465.77777	390.19421	-35.67783	137.06508	344.49911	-99.97531	112.18125	430.67459	93.96966	72.22114	324.73007	104.54243	64.95618	129.24139	-84.25367	996.92456	177.17220	-102.30180	662.01569	144.18985	-198.96498	513.48724	193.69583	-181.53070	440.25656	202.07410	-306.56915	115.63515	249.78128	-367.88660	91.12475	174.72159	-157.37967	55.46537	285.60593	-159.42262	45.25595	
1007	5.030	335.91629	-259.30240	1390.26831	450.11993	-125.92009	1496.68188	526.09521	-204.83803	1320.78052	620.64368	-156.45883	1200.32349	666.95319	-121.99637	1046.74829	743.65851	-11.18385	1013.79181	98.60708	-135.42146	1504.00842	43.70920	-224.20010	1292.34094	-41.89017	-194.95189	1204.07251	-94.33580	-149.04271	1059.45264	-174.48434	-28.64552	1008.14551	250.62769	-288.15079	1018.17700	300.39905	-283.45541	1013.25049	379.03674	-65.91080	1011.64124	338.09854	60.75921	747.36755	417.85526	70.74137	544.74390	376.15466	97.99181	466.27878	390.61240	-22.85659	134.22942	344.60516	-86.75262	107.04744	430.69296	108.98927	73.22795	324.73807	119.76163	66.25272	129.17683	-84.98596	996.17004	177.24669	-105.21436	661.23224	144.47842	-202.90558	513.35266	193.80826	-185.90994	440.02203	202.40401	-312.62448	116.00906	250.26971	-374.40579	92.15257	174.44202	-163.71140	55.59719	285.80167	-166.24716	44.90354	
1008	5.035	336.10880	-259.28427	1389.58020	450.10785	-126.14882	1496.25562	525.87146	-205.28931	1319.79260	620.62244	-157.14661	1199.78162	666.93835	-122.26749	1046.35364	743.55109	-11.37244	1013.64795	98.76302	-135.57372	1503.48889	44.03961	-224.41847	1291.74939	-41.64828	-195.49678	1203.52881	-94.25151	-149.34874	1059.00232	-174.44237	-28.72916	1008.11359	251.04216	-288.47672	1017.81232	300.89465	-283.64679	1012.80426	378.91559	-65.93112	1010.69299	337.57358	60.23550	746.96344	417.15112	70.93336	544.61108	375.34430	99.70896	466.96744	390.91031	-10.05519	131.26471	345.35147	-72.67583	101.39791	430.68423	123.82335	74.71351	324.58759	134.65538	67.92484	129.04807	-85.73703	995.48871	177.10695	-107.82368	660.46014	144.53728	-206.71973	513.23517	193.90804	-190.24280	439.82535	202.52409	-318.57196	116.39455	250.80005	-380.52344	92.65394	174.77267	-170.48291	55.34181	285.45142	-172.39682	44.90827	
1009	5.040	336.15189	-259.37619	1388.98535	450.15536	-126.36290	1495.77332	525.15234	-205.59377	1319.28357	620.67462	-157.79910	1199.26917	666.83032	-122.48650	1045.87561	743.60071	-11.45584	1013.62109	98.93122	-135.52605	1502.91699	44.34682	-224.71172	1291.23621	-41.54584	-195.99905	1202.94983	-94.21700	-149.68788	1058.62061	-174.41743	-28.76528	1008.06274	251.68242	-288.76306	1017.31403	301.26608	-283.76105	1012.23260	378.76300	-65.75427	1009.94604	337.36453	60.18150	746.19525	416.22366	70.78785	544.30603	374.51450	101.31219	467.59152	391.89395	2.09257	128.42943	345.41547	-59.02956	96.83576	430.62900	138.75027	76.45787	324.53720	149.31023	69.89919	128.86595	-86.40710	994.68652	177.16972	-110.14297	660.02216	144.38518	-210.56413	513.10205	194.18172	-194.28136	439.56375	202.76221	-324.70679	116.91927	250.94402	-386.68506	93.68196	174.80791	-176.92755	55.20287	285.45544	-179.08351	45.06015	
1010	5.045	336.18997	-259.34467	1388.25305	450.18509	-126.57595	1495.29370	524.67090	-206.05791	1318.59888	620.67853	-158.46078	1198.73462	666.84534	-122.70656	1045.37976	743.53717	-11.45812	1013.51392	99.19032	-135.67419	1502.27795	44.61566	-224.94029	1290.73596	-41.32518	-196.50430	1202.47107	-94.15534	-149.84810	1058.16870	-174.33278	-28.82467	1007.96375	252.17339	-289.01923	1016.90723	301.88889	-283.92712	1011.72498	378.74475	-65.56648	1009.15265	336.93927	59.32897	745.32697	415.29129	70.47900	543.72949	373.98019	102.65953	467.97604	391.80698	14.77189	125.70563	345.73975	-45.51538	93.22264	430.68869	153.20905	78.53328	324.57611	163.07967	71.54443	128.78522	-87.15465	993.98242	176.97870	-112.92992	659.04285	144.45117	-214.37346	513.05713	194.32184	-198.48026	439.36472	203.00414	-330.89203	117.50244	251.18324	-392.71298	94.51416	174.80083	-183.49731	54.96659	285.69937	-185.60651	44.98365	
1011	5.050	336.31381	-259.45227	1387.60229	450.22559	-126.85200	1494.81519	524.26312	-206.41270	1317.84998	620.63940	-159.28854	1198.12268	666.83643	-122.82864	1044.79944	743.57135	-11.49020	1013.50220	99.49723	-135.70949	1501.75598	44.81456	-225.15315	1290.27930	-41.13633	-196.96706	1201.84912	-94.12610	-150.01282	1057.82947	-174.22050	-28.86757	1007.89270	252.67142	-289.23505	1016.45740	302.36191	-283.97876	1011.15564	378.63580	-65.37479	1008.27808	336.58368	58.66924	744.25879	414.37363	70.16489	543.05237	373.33392	103.64072	468.11523	392.78757	26.76776	123.84371	345.66672	-32.16251	89.20227	430.59238	167.05919	80.92880	324.43396	176.93260	74.31171	128.73738	-87.75966	993.26990	176.67816	-115.48808	658.58453	144.58429	-218.00687	512.91663	194.56203	-202.56531	439.25082	203.44806	-337.15408	118.19648	250.64259	-398.53745	95.95509	174.67781	-190.07397	55.00816	285.84940	-191.98436	44.83605	
1012	5.055	336.51434	-259.39331	1386.96497	450.30164	-127.02193	1494.34851	523.86456	-206.76047	1317.02393	620.64276	-160.02528	1197.58093	666.82117	-123.00297	1044.28064	743.60583	-11.58470	1013.41089	99.73261	-135.66217	1501.18335	44.97361	-225.35263	1289.63977	-40.96773	-197.51865	1201.35168	-93.93503	-150.15767	1057.51599	-174.19830	-28.96446	1007.86584	253.25700	-289.31082	1015.86005	302.80634	-283.83505	1010.63104	378.51382	-64.98786	1007.43597	336.52316	57.87511	743.02051	413.47620	69.42790	542.13177	372.29782	104.75221	468.39267	393.26224	38.67854	122.30376	346.00598	-18.46954	85.36594	430.57346	180.64098	83.57417	324.64322	191.04102	77.37936	128.72180	-88.33631	992.52570	176.67833	-117.65033	658.20496	144.73598	-221.57291	512.90723	194.72478	-206.50937	438.96384	203.47792	-343.20010	118.76179	250.94608	-404.75970	96.76752	174.78377	-196.80067	54.93405	285.58786	-198.48611	44.91195	
1013	5.060	336.49084	-259.50818	1386.17920	450.38434	-127.37528	1493.82275	523.44489	-207.06854	1316.17786	620.68243	-160.71429	1197.00464	666.75494	-123.20435	1043.83618	743.70752	-11.65349	1013.36218	100.03152	-135.64056	1500.55994	45.19276	-225.64000	1289.20422	-40.59265	-198.01118	1200.72595	-93.80184	-150.37291	1057.07227	-174.15474	-29.02295	1007.82166	253.98872	-289.27344	1015.18951	303.35147	-283.77066	1010.17255	378.55298	-64.79530	1006.63037	336.20151	57.17203	741.60046	412.64606	68.71771	541.36902	371.59482	105.53744	468.68085	393.49994	50.03416	121.37562	346.01364	-5.18194	81.87696	430.68304	194.10388	86.70025	324.69748	204.40974	80.90176	128.63644	-88.91278	991.86609	176.27112	-120.01736	657.28802	144.95256	-224.95938	512.71082	194.85539	-210.44118	438.81927	203.84450	-349.15164	119.21486	252.05756	-411.56335	97.58720	174.81168	-203.45959	54.90681	285.67447	-205.20970	44.64274	
